<mxfile host="app.diagrams.net" modified="2024-02-09T18:50:52.880Z" agent="Mozilla/5.0 (Macintosh; Intel Mac OS X 10_15_7) AppleWebKit/537.36 (KHTML, like Gecko) Chrome/121.0.0.0 Safari/537.36 " etag="vYBqmtP5ItC7mKMdmpKX" version="23.1.2" type="github">
  <diagram name="Page-1" id="Q1iSKxC4Lo8WG09ff5Kb">
    <mxGraphModel dx="1121" dy="734" grid="1" gridSize="10" guides="1" tooltips="1" connect="1" arrows="1" fold="1" page="1" pageScale="1" pageWidth="850" pageHeight="1100" math="0" shadow="0">
      <root>
        <mxCell id="0" />
        <mxCell id="1" parent="0" />
        <mxCell id="nl1dLuBVXzKRqtiI2CIb-1" value="On-Prem" style="swimlane;whiteSpace=wrap;html=1;" parent="1" vertex="1">
          <mxGeometry x="50" y="40" width="290" height="280" as="geometry" />
        </mxCell>
        <mxCell id="nl1dLuBVXzKRqtiI2CIb-2" value="" style="image;points=[];aspect=fixed;html=1;align=center;shadow=0;dashed=0;image=img/lib/allied_telesis/computer_and_terminals/Personal_Computer.svg;" parent="nl1dLuBVXzKRqtiI2CIb-1" vertex="1">
          <mxGeometry x="10" y="40" width="45.6" height="61.800000000000004" as="geometry" />
        </mxCell>
        <mxCell id="nl1dLuBVXzKRqtiI2CIb-4" value="" style="image;aspect=fixed;perimeter=ellipsePerimeter;html=1;align=center;shadow=0;dashed=0;spacingTop=3;image=img/lib/active_directory/database_server.svg;" parent="nl1dLuBVXzKRqtiI2CIb-1" vertex="1">
          <mxGeometry x="110" y="46" width="41" height="50" as="geometry" />
        </mxCell>
        <mxCell id="nl1dLuBVXzKRqtiI2CIb-7" style="edgeStyle=orthogonalEdgeStyle;rounded=0;orthogonalLoop=1;jettySize=auto;html=1;entryX=0.25;entryY=1;entryDx=0;entryDy=0;" parent="nl1dLuBVXzKRqtiI2CIb-1" source="nl1dLuBVXzKRqtiI2CIb-5" target="nl1dLuBVXzKRqtiI2CIb-4" edge="1">
          <mxGeometry relative="1" as="geometry" />
        </mxCell>
        <mxCell id="nl1dLuBVXzKRqtiI2CIb-6" style="edgeStyle=orthogonalEdgeStyle;rounded=0;orthogonalLoop=1;jettySize=auto;html=1;entryX=0.877;entryY=0.971;entryDx=0;entryDy=0;entryPerimeter=0;" parent="nl1dLuBVXzKRqtiI2CIb-1" source="nl1dLuBVXzKRqtiI2CIb-5" target="nl1dLuBVXzKRqtiI2CIb-2" edge="1">
          <mxGeometry relative="1" as="geometry" />
        </mxCell>
        <mxCell id="nl1dLuBVXzKRqtiI2CIb-8" value="" style="html=1;verticalLabelPosition=bottom;align=center;labelBackgroundColor=#ffffff;verticalAlign=top;strokeWidth=2;strokeColor=#0080F0;shadow=0;dashed=0;shape=mxgraph.ios7.icons.smartphone;" parent="nl1dLuBVXzKRqtiI2CIb-1" vertex="1">
          <mxGeometry x="220" y="56" width="18" height="30" as="geometry" />
        </mxCell>
        <mxCell id="nl1dLuBVXzKRqtiI2CIb-9" style="edgeStyle=orthogonalEdgeStyle;rounded=0;orthogonalLoop=1;jettySize=auto;html=1;entryX=0.167;entryY=0.833;entryDx=0;entryDy=0;entryPerimeter=0;" parent="nl1dLuBVXzKRqtiI2CIb-1" source="nl1dLuBVXzKRqtiI2CIb-5" target="nl1dLuBVXzKRqtiI2CIb-8" edge="1">
          <mxGeometry relative="1" as="geometry" />
        </mxCell>
        <mxCell id="nl1dLuBVXzKRqtiI2CIb-5" value="RaspPi&amp;nbsp; &amp;nbsp; Scanner" style="shape=mxgraph.cisco.computers_and_peripherals.scanner;html=1;pointerEvents=1;dashed=0;fillColor=#036897;strokeColor=#ffffff;strokeWidth=2;verticalLabelPosition=bottom;verticalAlign=top;align=center;outlineConnect=0;" parent="nl1dLuBVXzKRqtiI2CIb-1" vertex="1">
          <mxGeometry x="80" y="150" width="80" height="75" as="geometry" />
        </mxCell>
        <mxCell id="nl1dLuBVXzKRqtiI2CIb-10" value="&lt;font color=&quot;#000000&quot; style=&quot;font-size: 17px;&quot;&gt;AWS Cloud&lt;/font&gt;" style="points=[[0,0],[0.25,0],[0.5,0],[0.75,0],[1,0],[1,0.25],[1,0.5],[1,0.75],[1,1],[0.75,1],[0.5,1],[0.25,1],[0,1],[0,0.75],[0,0.5],[0,0.25]];outlineConnect=0;gradientColor=none;html=1;whiteSpace=wrap;fontSize=12;fontStyle=0;container=1;pointerEvents=0;collapsible=0;recursiveResize=0;shape=mxgraph.aws4.group;grIcon=mxgraph.aws4.group_vpc2;strokeColor=#8C4FFF;fillColor=none;verticalAlign=top;align=left;spacingLeft=30;fontColor=#AAB7B8;dashed=0;" parent="1" vertex="1">
          <mxGeometry x="360" y="340" width="440" height="400" as="geometry" />
        </mxCell>
        <mxCell id="nl1dLuBVXzKRqtiI2CIb-19" style="edgeStyle=orthogonalEdgeStyle;rounded=0;orthogonalLoop=1;jettySize=auto;html=1;" parent="nl1dLuBVXzKRqtiI2CIb-10" source="nl1dLuBVXzKRqtiI2CIb-14" target="nl1dLuBVXzKRqtiI2CIb-18" edge="1">
          <mxGeometry relative="1" as="geometry" />
        </mxCell>
        <mxCell id="nl1dLuBVXzKRqtiI2CIb-20" value="&lt;font style=&quot;font-size: 14px;&quot;&gt;Lambda Run&amp;nbsp;&lt;br style=&quot;font-size: 14px;&quot;&gt;When FIle Upload&lt;/font&gt;" style="edgeLabel;html=1;align=center;verticalAlign=middle;resizable=0;points=[];fontSize=14;" parent="nl1dLuBVXzKRqtiI2CIb-19" vertex="1" connectable="0">
          <mxGeometry x="-0.28" y="2" relative="1" as="geometry">
            <mxPoint x="11" y="2" as="offset" />
          </mxGeometry>
        </mxCell>
        <mxCell id="nl1dLuBVXzKRqtiI2CIb-14" value="Amazon S3" style="sketch=0;outlineConnect=0;fontColor=#232F3E;gradientColor=none;strokeColor=#ffffff;fillColor=#232F3E;dashed=0;verticalLabelPosition=middle;verticalAlign=bottom;align=center;html=1;whiteSpace=wrap;fontSize=10;fontStyle=1;spacing=3;shape=mxgraph.aws4.productIcon;prIcon=mxgraph.aws4.s3;" parent="nl1dLuBVXzKRqtiI2CIb-10" vertex="1">
          <mxGeometry x="25" y="40" width="80" height="100" as="geometry" />
        </mxCell>
        <mxCell id="nl1dLuBVXzKRqtiI2CIb-21" value="" style="edgeStyle=orthogonalEdgeStyle;rounded=0;orthogonalLoop=1;jettySize=auto;html=1;" parent="nl1dLuBVXzKRqtiI2CIb-10" source="nl1dLuBVXzKRqtiI2CIb-18" target="nl1dLuBVXzKRqtiI2CIb-14" edge="1">
          <mxGeometry relative="1" as="geometry" />
        </mxCell>
        <mxCell id="SEV0nu3-5B0RSl3-wltB-4" value="&lt;font style=&quot;font-size: 16px;&quot;&gt;Enrich/Remediations&lt;/font&gt;" style="edgeStyle=orthogonalEdgeStyle;rounded=0;orthogonalLoop=1;jettySize=auto;html=1;" edge="1" parent="nl1dLuBVXzKRqtiI2CIb-10" source="nl1dLuBVXzKRqtiI2CIb-18" target="SEV0nu3-5B0RSl3-wltB-1">
          <mxGeometry x="-0.1077" y="-10" relative="1" as="geometry">
            <Array as="points">
              <mxPoint x="270" y="200" />
            </Array>
            <mxPoint as="offset" />
          </mxGeometry>
        </mxCell>
        <mxCell id="SEV0nu3-5B0RSl3-wltB-8" style="edgeStyle=orthogonalEdgeStyle;rounded=0;orthogonalLoop=1;jettySize=auto;html=1;" edge="1" parent="nl1dLuBVXzKRqtiI2CIb-10" source="nl1dLuBVXzKRqtiI2CIb-18" target="SEV0nu3-5B0RSl3-wltB-5">
          <mxGeometry relative="1" as="geometry">
            <Array as="points">
              <mxPoint x="270" y="270" />
            </Array>
          </mxGeometry>
        </mxCell>
        <mxCell id="SEV0nu3-5B0RSl3-wltB-9" value="Save results&lt;br style=&quot;font-size: 15px;&quot;&gt;Executive Summary&lt;br style=&quot;font-size: 15px;&quot;&gt;Full Report, etc" style="edgeLabel;html=1;align=center;verticalAlign=middle;resizable=0;points=[];fontSize=15;" vertex="1" connectable="0" parent="SEV0nu3-5B0RSl3-wltB-8">
          <mxGeometry x="0.2982" y="1" relative="1" as="geometry">
            <mxPoint x="-25" y="-1" as="offset" />
          </mxGeometry>
        </mxCell>
        <mxCell id="nl1dLuBVXzKRqtiI2CIb-18" value="AWS Lambda" style="sketch=0;outlineConnect=0;fontColor=#232F3E;gradientColor=none;strokeColor=#ffffff;fillColor=#232F3E;dashed=0;verticalLabelPosition=middle;verticalAlign=bottom;align=center;html=1;whiteSpace=wrap;fontSize=10;fontStyle=1;spacing=3;shape=mxgraph.aws4.productIcon;prIcon=mxgraph.aws4.lambda;" parent="nl1dLuBVXzKRqtiI2CIb-10" vertex="1">
          <mxGeometry x="250" y="40" width="80" height="100" as="geometry" />
        </mxCell>
        <mxCell id="SEV0nu3-5B0RSl3-wltB-1" value="Amazon&#xa;Aurora" style="sketch=0;outlineConnect=0;fontColor=#232F3E;gradientColor=none;strokeColor=#ffffff;fillColor=#232F3E;dashed=0;verticalLabelPosition=middle;verticalAlign=bottom;align=center;html=1;whiteSpace=wrap;fontSize=10;fontStyle=1;spacing=3;shape=mxgraph.aws4.productIcon;prIcon=mxgraph.aws4.aurora;" vertex="1" parent="nl1dLuBVXzKRqtiI2CIb-10">
          <mxGeometry x="340" y="145" width="80" height="110" as="geometry" />
        </mxCell>
        <mxCell id="SEV0nu3-5B0RSl3-wltB-12" style="edgeStyle=orthogonalEdgeStyle;rounded=0;orthogonalLoop=1;jettySize=auto;html=1;" edge="1" parent="nl1dLuBVXzKRqtiI2CIb-10" source="SEV0nu3-5B0RSl3-wltB-5" target="SEV0nu3-5B0RSl3-wltB-11">
          <mxGeometry relative="1" as="geometry">
            <Array as="points">
              <mxPoint x="70" y="354" />
            </Array>
          </mxGeometry>
        </mxCell>
        <mxCell id="SEV0nu3-5B0RSl3-wltB-5" value="Amazon S3" style="sketch=0;outlineConnect=0;fontColor=#232F3E;gradientColor=none;strokeColor=#ffffff;fillColor=#232F3E;dashed=0;verticalLabelPosition=middle;verticalAlign=bottom;align=center;html=1;whiteSpace=wrap;fontSize=10;fontStyle=1;spacing=3;shape=mxgraph.aws4.productIcon;prIcon=mxgraph.aws4.s3;" vertex="1" parent="nl1dLuBVXzKRqtiI2CIb-10">
          <mxGeometry x="35" y="220" width="80" height="100" as="geometry" />
        </mxCell>
        <mxCell id="SEV0nu3-5B0RSl3-wltB-11" value="Email to Us/Client" style="outlineConnect=0;dashed=0;verticalLabelPosition=bottom;verticalAlign=top;align=center;html=1;shape=mxgraph.aws3.ses;fillColor=#D9A741;gradientColor=none;" vertex="1" parent="nl1dLuBVXzKRqtiI2CIb-10">
          <mxGeometry x="280" y="280" width="79.5" height="93" as="geometry" />
        </mxCell>
        <mxCell id="nl1dLuBVXzKRqtiI2CIb-15" style="edgeStyle=orthogonalEdgeStyle;rounded=0;orthogonalLoop=1;jettySize=auto;html=1;" parent="1" source="nl1dLuBVXzKRqtiI2CIb-5" target="nl1dLuBVXzKRqtiI2CIb-14" edge="1">
          <mxGeometry relative="1" as="geometry">
            <Array as="points">
              <mxPoint x="170" y="430" />
            </Array>
          </mxGeometry>
        </mxCell>
        <mxCell id="nl1dLuBVXzKRqtiI2CIb-16" value="&lt;font style=&quot;font-size: 15px;&quot;&gt;Scan Result uploaded to S3&lt;/font&gt;" style="edgeLabel;html=1;align=center;verticalAlign=middle;resizable=0;points=[];" parent="nl1dLuBVXzKRqtiI2CIb-15" vertex="1" connectable="0">
          <mxGeometry x="-0.0899" y="4" relative="1" as="geometry">
            <mxPoint x="72" y="4" as="offset" />
          </mxGeometry>
        </mxCell>
        <mxCell id="SEV0nu3-5B0RSl3-wltB-10" value="&lt;div style=&quot;text-align: left; font-size: 24px;&quot;&gt;&lt;span style=&quot;background-color: initial;&quot;&gt;&lt;font style=&quot;font-size: 24px;&quot;&gt;&lt;b style=&quot;&quot;&gt;MVP:&lt;/b&gt;&lt;/font&gt;&lt;/span&gt;&lt;/div&gt;&lt;div style=&quot;text-align: left; font-size: 24px;&quot;&gt;&lt;span style=&quot;background-color: initial;&quot;&gt;&lt;font style=&quot;font-size: 24px;&quot;&gt;&lt;b&gt;1. Scan Network&lt;/b&gt;&lt;/font&gt;&lt;/span&gt;&lt;/div&gt;&lt;div style=&quot;text-align: left; font-size: 24px;&quot;&gt;&lt;span style=&quot;background-color: initial;&quot;&gt;&lt;font style=&quot;font-size: 24px;&quot;&gt;&lt;b&gt;2. Upload to S3&lt;/b&gt;&lt;/font&gt;&lt;/span&gt;&lt;/div&gt;&lt;div style=&quot;text-align: left; font-size: 24px;&quot;&gt;&lt;span style=&quot;background-color: initial;&quot;&gt;&lt;font style=&quot;font-size: 24px;&quot;&gt;&lt;b&gt;3. Lambda Parses&lt;/b&gt;&lt;/font&gt;&lt;/span&gt;&lt;/div&gt;&lt;div style=&quot;text-align: left; font-size: 24px;&quot;&gt;&lt;span style=&quot;background-color: initial;&quot;&gt;&lt;font style=&quot;font-size: 24px;&quot;&gt;&lt;b&gt;4. Save to S3&lt;/b&gt;&lt;/font&gt;&lt;/span&gt;&lt;/div&gt;&lt;div style=&quot;text-align: left; font-size: 24px;&quot;&gt;&lt;span style=&quot;background-color: initial;&quot;&gt;&lt;font style=&quot;font-size: 24px;&quot;&gt;&lt;b style=&quot;&quot;&gt;5. Send Email w/ Link&lt;/b&gt;&lt;/font&gt;&lt;/span&gt;&lt;/div&gt;" style="text;html=1;align=center;verticalAlign=middle;resizable=0;points=[];autosize=1;strokeColor=none;fillColor=none;" vertex="1" parent="1">
          <mxGeometry x="420" y="50" width="270" height="190" as="geometry" />
        </mxCell>
      </root>
    </mxGraphModel>
  </diagram>
</mxfile>
